<svg width="28" height="26" viewBox="0 0 28 26" fill="none" xmlns="http://www.w3.org/2000/svg">
<rect x="1" y="9" width="19" height="16" rx="2" stroke="black" stroke-width="2"/>
<path d="M14.8846 9.38462C14.8846 6.96306 12.9215 5 10.5 5C8.07842 5 6.11536 6.96306 6.11536 9.38462" stroke="black" stroke-width="2"/>
<circle cx="21" cy="10" r="7" fill="#1DA154"/>
<path d="M18.486 8.3065C18.531 7.9945 18.618 7.7215 18.747 7.4875C18.876 7.2505 19.0365 7.054 19.2285 6.898C19.4235 6.739 19.6455 6.6205 19.8945 6.5425C20.1465 6.4615 20.4165 6.421 20.7045 6.421C21.0045 6.421 21.2745 6.4645 21.5145 6.5515C21.7575 6.6355 21.9645 6.754 22.1355 6.907C22.3065 7.057 22.437 7.234 22.527 7.438C22.62 7.642 22.6665 7.8625 22.6665 8.0995C22.6665 8.3065 22.6425 8.4895 22.5945 8.6485C22.5495 8.8045 22.4835 8.941 22.3965 9.058C22.3095 9.175 22.2015 9.274 22.0725 9.355C21.9435 9.436 21.798 9.5035 21.636 9.5575C22.026 9.6805 22.317 9.868 22.509 10.12C22.701 10.372 22.797 10.6885 22.797 11.0695C22.797 11.3935 22.737 11.68 22.617 11.929C22.497 12.178 22.335 12.388 22.131 12.559C21.927 12.727 21.69 12.8545 21.42 12.9415C21.153 13.0285 20.8695 13.072 20.5695 13.072C20.2425 13.072 19.9575 13.0345 19.7145 12.9595C19.4715 12.8845 19.26 12.7735 19.08 12.6265C18.9 12.4795 18.747 12.2995 18.621 12.0865C18.495 11.8735 18.387 11.6275 18.297 11.3485L18.7875 11.146C18.9165 11.092 19.0365 11.0785 19.1475 11.1055C19.2615 11.1295 19.344 11.1895 19.395 11.2855C19.449 11.3905 19.5075 11.494 19.5705 11.596C19.6365 11.698 19.7145 11.7895 19.8045 11.8705C19.8945 11.9485 19.9995 12.013 20.1195 12.064C20.2425 12.112 20.388 12.136 20.556 12.136C20.745 12.136 20.91 12.106 21.051 12.046C21.192 11.983 21.309 11.902 21.402 11.803C21.498 11.704 21.5685 11.5945 21.6135 11.4745C21.6615 11.3515 21.6855 11.2285 21.6855 11.1055C21.6855 10.9495 21.669 10.8085 21.636 10.6825C21.603 10.5535 21.534 10.444 21.429 10.354C21.324 10.264 21.1725 10.1935 20.9745 10.1425C20.7795 10.0915 20.517 10.066 20.187 10.066V9.274C20.46 9.271 20.6865 9.2455 20.8665 9.1975C21.0465 9.1495 21.189 9.0835 21.294 8.9995C21.402 8.9125 21.477 8.809 21.519 8.689C21.561 8.569 21.582 8.437 21.582 8.293C21.582 7.987 21.4965 7.7545 21.3255 7.5955C21.1545 7.4365 20.9265 7.357 20.6415 7.357C20.5095 7.357 20.388 7.3765 20.277 7.4155C20.166 7.4515 20.0655 7.504 19.9755 7.573C19.8885 7.639 19.815 7.717 19.755 7.807C19.695 7.897 19.65 7.996 19.62 8.104C19.569 8.242 19.5015 8.3335 19.4175 8.3785C19.3365 8.4235 19.221 8.434 19.071 8.41L18.486 8.3065Z" fill="white"/>
</svg>
